# xmcd
#
# Track frame offsets:
#	150
#	11195
#	22155
#	33235
#	45905
#	59670
#	70050
#	79535
#	91010
#	101067
#	111585
#	123810
#	136585
#	145145
#	155100
#	164135
#
# Disc length: 2351
#
# Revision: 3
# Processed by: cddbd v1.5.1PL0 Copyright (c) Steve Scherf et al.
# Submitted via: ExactAudioCopy v0.90b4
# Normalized: r2:DSETVAR1
#
DISCID=d7092d10
DTITLE=Various Artist - Country Hits 1950-65 - CD2
DYEAR=1900
DGENRE=Country
TTITLE0=Johnny Russel - King Of The Road
TTITLE1=Billy Walker - Charlie's Shoes
TTITLE2=Ferlin Husky - Wings Of A Dove
TTITLE3=Caude King - Wolverton Mountain
TTITLE4=Jimmy Dean - Big Bad John
TTITLE5=Warner Mack - The Bridge Washed Out
TTITLE6=Jimmy Dean - The First Thing Every Morning
TTITLE7=Porter Wagoner - Misery Loves Company
TTITLE8=Hank Locklin - Please Help Me I'm Falling
TTITLE9=Faron Young - Hello Walls
TTITLE10=Dave Dudley - Mad
TTITLE11=Hank Thompson - Oklahoma Hills
TTITLE12=Frankie Miller - Family Man
TTITLE13=Dave Dudley - Cowboy Boots
TTITLE14=Bob Luman - Let's Think About Living
TTITLE15=Porter Wagoner - Satisfied Mind
EXTD=
EXTT0=
EXTT1=
EXTT2=
EXTT3=
EXTT4=
EXTT5=
EXTT6=
EXTT7=
EXTT8=
EXTT9=
EXTT10=
EXTT11=
EXTT12=
EXTT13=
EXTT14=
EXTT15=
PLAYORDER=
